<svg xmlns="http://www.w3.org/2000/svg" version="1.1" xmlns:xlink="http://www.w3.org/1999/xlink" xmlns:svgjs="http://svgjs.dev/svgjs" width="1000" height="507" viewBox="0 0 1000 507"><g transform="matrix(1,0,0,1,-0.6060603052019928,0.16779221363836427)"><svg viewBox="0 0 396 201" data-background-color="#ffffff" preserveAspectRatio="xMidYMid meet" height="507" width="1000" xmlns="http://www.w3.org/2000/svg" xmlns:xlink="http://www.w3.org/1999/xlink"><g id="tight-bounds" transform="matrix(1,0,0,1,0.24000011914000652,-0.06652117345426234)"><svg viewBox="0 0 395.52 201.13303853442827" height="201.13303853442827" width="395.52"><g><svg viewBox="0 0 395.52000000000004 201.1330385344283" height="201.13303853442827" width="395.52"><g><svg viewBox="0 0 395.52000000000004 201.1330385344283" height="201.1330385344283" width="395.52000000000004"><g id="textblocktransform"><svg viewBox="0 0 395.52000000000004 201.1330385344283" height="201.1330385344283" width="395.52000000000004" id="textblock"><g><svg viewBox="0 0 395.52000000000004 201.1330385344283" height="201.1330385344283" width="395.52000000000004"><g transform="matrix(1,0,0,1,0,0)"><svg width="395.52000000000004" viewBox="3.700000047683716 -39.95000076293945 79.1500015258789 40.25" height="201.1330385344283" data-palette-color="#ff0000"><g class="wordmark-text-0" data-fill-palette-color="primary" id="text-0"><path d="M34.65-39.95L34.65-39.95Q36.25-39.95 38.15-39.2L38.15-39.2Q39.9-38.5 39.9-36.55L39.9-36.55 39.9-2.1Q39.9 0.3 36.95 0.3L36.95 0.3Q34 0.3 34-2.1L34-2.1 34-27.8 32.55-27.95 30.55-21.45 24.55-1.45Q24 0.3 21.85 0.25L21.85 0.25Q20.9 0.2 20.2-0.25 19.5-0.7 19.25-1.55L19.25-1.55 15.65-13.2Q14.55-16.65 13.45-20.23 12.35-23.8 11.05-28.15L11.05-28.15 9.6-27.95 9.6-2.1Q9.6 0.3 6.65 0.3L6.65 0.3Q3.7 0.3 3.7-2.1L3.7-2.1 3.7-36.55Q3.7-38.45 5.45-39.2L5.45-39.2Q7.3-39.95 9-39.9L9-39.9Q9.75-39.9 10.55-39.7 11.35-39.5 12.05-39.13 12.75-38.75 13.3-38.18 13.85-37.6 14.15-36.85L14.15-36.85 22-10.1Q22.85-13.05 23.8-16.5 24.75-19.95 25.75-23.5 26.75-27.05 27.73-30.53 28.7-34 29.55-37L29.55-37Q29.85-37.7 30.4-38.25 30.95-38.8 31.65-39.18 32.35-39.55 33.13-39.75 33.9-39.95 34.65-39.95ZM77.6-39.95L77.6-39.95Q79.2-39.95 81.1-39.2L81.1-39.2Q82.85-38.5 82.85-36.55L82.85-36.55 82.85-2.1Q82.85 0.3 79.9 0.3L79.9 0.3Q76.95 0.3 76.95-2.1L76.95-2.1 76.95-27.8 75.5-27.95 73.5-21.45 67.5-1.45Q66.95 0.3 64.8 0.25L64.8 0.25Q63.85 0.2 63.15-0.25 62.45-0.7 62.2-1.55L62.2-1.55 58.6-13.2Q57.5-16.65 56.4-20.23 55.3-23.8 54-28.15L54-28.15 52.55-27.95 52.55-2.1Q52.55 0.3 49.6 0.3L49.6 0.3Q46.65 0.3 46.65-2.1L46.65-2.1 46.65-36.55Q46.65-38.45 48.4-39.2L48.4-39.2Q50.25-39.95 51.95-39.9L51.95-39.9Q52.7-39.9 53.5-39.7 54.3-39.5 55-39.13 55.7-38.75 56.25-38.18 56.8-37.6 57.1-36.85L57.1-36.85 64.95-10.1Q65.8-13.05 66.75-16.5 67.7-19.95 68.7-23.5 69.7-27.05 70.67-30.53 71.65-34 72.5-37L72.5-37Q72.8-37.7 73.35-38.25 73.9-38.8 74.6-39.18 75.3-39.55 76.07-39.75 76.85-39.95 77.6-39.95Z" fill="#ff0000" data-fill-palette-color="primary"></path></g></svg></g></svg></g></svg></g></svg></g><g></g></svg></g><defs></defs></svg><rect width="395.52" height="201.13303853442827" fill="none" stroke="none" visibility="hidden"></rect></g></svg></g></svg>